<?xml version="1.0" encoding="UTF-8"?>
<svg id="Calque_2" data-name="Calque 2" xmlns="http://www.w3.org/2000/svg" viewBox="0 0 1024 1024">
  <g id="Lin_Apd" data-name="Lin Apd">
    <g>
      <path d="m168.64,515.65l120.12-416.02h94.92l120.12,416.02h-83.5l-81.45-314.36h-5.27l-81.45,314.36h-83.5Zm43.07,0v-71.19h246.09v71.19h-246.09Z"/>
      <path d="m556.24,650.41V205.1h73.54l5.86,65.62v379.69h-79.39Zm162.3-128.91c-21.68,0-39.07-5.18-52.15-15.53-13.09-10.35-21.19-25.88-24.32-46.58h-27.54l21.09-98.73c0,30.08,4.49,51.96,13.48,65.62,8.98,13.67,24.71,20.51,47.17,20.51,20.7,0,36.37-7.22,47.02-21.68,10.64-14.45,15.97-35.93,15.97-64.45s-5.47-48.88-16.41-64.01c-10.94-15.13-26.47-22.71-46.58-22.71s-35.26,6.94-45.41,20.8c-10.16,13.87-15.23,35.84-15.23,65.92l-18.16-99.32h22.85c3.71-20.9,11.67-36.47,23.88-46.73,12.2-10.25,30.12-15.38,53.76-15.38,38.86,0,68.99,14.06,90.38,42.19s32.08,67.87,32.08,119.24-10.69,91.51-32.08,119.24c-21.39,27.74-51.32,41.6-89.79,41.6Z"/>
    </g>
    <g>
      <path d="m269.27,890.86v-208.01h38.67v208.01h-38.67Zm0,0v-35.6h142.68v35.6h-142.68Z"/>
      <path d="m446.23,717.57v-34.72h131.54v34.72h-131.54Zm0,173.29v-34.86h131.54v34.86h-131.54Zm46.29,0v-208.01h38.67v208.01h-38.67Z"/>
      <path d="m619.08,890.86v-208.01h37.21v208.01h-37.21Zm79.25,0l-36.62-162.6h-15.97v-45.41h31.49l36.62,162.6h9.81v45.41h-25.34Zm20.95,0v-208.01h37.21v208.01h-37.21Z"/>
    </g>
    <path d="m943.62,20c33.3,0,60.38,27.09,60.38,60.38v863.23c0,33.3-27.09,60.38-60.38,60.38H80.38c-33.3,0-60.38-27.09-60.38-60.38V80.38c0-33.3,27.09-60.38,60.38-60.38h863.23m0-20H80.38C35.99,0,0,35.99,0,80.38v863.23c0,44.4,35.99,80.38,80.38,80.38h863.23c44.4,0,80.38-35.99,80.38-80.38V80.38c0-44.4-35.99-80.38-80.38-80.38h0Z"/>
  </g>
</svg>